<svg xmlns="http://www.w3.org/2000/svg" style="display: none;">

    <symbol id="telega" viewBox="0 0 35 30" fill="none">
        <path
                d="M32.1586 0.340967L1.1503 12.5808C-0.0975299 13.1508 -0.519581 14.2923 0.8487 14.9118L8.80368 17.4995L28.0378 5.33177C29.088 4.5679 30.1632 4.77159 29.238 5.6119L12.7185 20.9224L12.1996 27.4017C12.6802 28.4021 13.5603 28.4068 14.1216 27.9095L18.692 23.4829L26.5195 29.4827C28.3375 30.5844 29.3267 29.8734 29.7179 27.8541L34.852 2.96937C35.3851 0.483814 34.476 -0.611346 32.1586 0.340967Z"
                fill="currentColor"
        />
    </symbol>


    <symbol id="union-icon" viewBox="0 0 32 32" fill="none">
        <path d="M6.33333 2.5C4.76853 2.5 3.5 3.76853 3.5 5.33333C3.5 6.89814 4.76853 8.16667 6.33333 8.16667C7.89814 8.16667 9.16667 6.89814 9.16667 5.33333C9.16667 3.76853 7.89814 2.5 6.33333 2.5Z" fill="currentColor"/>
        <path d="M3.66667 10.5C3.57462 10.5 3.5 10.5746 3.5 10.6667V28C3.5 28.092 3.57462 28.1667 3.66667 28.1667H9C9.09205 28.1667 9.16667 28.092 9.16667 28V10.6667C9.16667 10.5746 9.09205 10.5 9 10.5H3.66667Z" fill="currentColor"/>
        <path d="M12.3333 10.5C12.2413 10.5 12.1667 10.5746 12.1667 10.6667V28C12.1667 28.092 12.2413 28.1667 12.3333 28.1667H17.6667C17.7587 28.1667 17.8333 28.092 17.8333 28V18.6667C17.8333 18.0036 18.0967 17.3677 18.5656 16.8989C19.0344 16.4301 19.6703 16.1667 20.3333 16.1667C20.9964 16.1667 21.6323 16.4301 22.1011 16.8989C22.5699 17.3677 22.8333 18.0036 22.8333 18.6667V28C22.8333 28.092 22.908 28.1667 23 28.1667H28.3333C28.4254 28.1667 28.5 28.092 28.5 28V16.507C28.5 13.2713 25.6859 10.74 22.4665 11.0327C21.4736 11.1229 20.4919 11.3697 19.5753 11.7626L17.8333 12.5091V10.6667C17.8333 10.5746 17.7587 10.5 17.6667 10.5H12.3333Z" fill="currentColor"/>
    </symbol>



<symbol id="cat" viewBox="0 0 31 30" fill="currentColor">
        <path fill-rule="evenodd" clip-rule="evenodd" d="M15.3333 0C6.86167 0 0 6.86167 0 15.3333C0 22.1183 4.38917 27.8492 10.4842 29.8808C11.2508 30.015 11.5383 29.555 11.5383 29.1525C11.5383 28.7883 11.5192 27.5808 11.5192 26.2967C7.66667 27.0058 6.67 25.3575 6.36333 24.495C6.19083 24.0542 5.44333 22.6933 4.79167 22.3292C4.255 22.0417 3.48833 21.3325 4.7725 21.3133C5.98 21.2942 6.8425 22.425 7.13 22.885C8.51 25.2042 10.7142 24.5525 11.5958 24.15C11.73 23.1533 12.1325 22.4825 12.5733 22.0992C9.16167 21.7158 5.59667 20.3933 5.59667 14.5283C5.59667 12.8608 6.19083 11.4808 7.16833 10.4075C7.015 10.0242 6.47833 8.4525 7.32167 6.34417C7.32167 6.34417 8.60583 5.94167 11.5383 7.91583C12.765 7.57083 14.0683 7.39833 15.3717 7.39833C16.675 7.39833 17.9783 7.57083 19.205 7.91583C22.1375 5.9225 23.4217 6.34417 23.4217 6.34417C24.265 8.4525 23.7283 10.0242 23.575 10.4075C24.5525 11.4808 25.1467 12.8417 25.1467 14.5283C25.1467 20.4125 21.5625 21.7158 18.1508 22.0992C18.7067 22.5783 19.1858 23.4983 19.1858 24.9358C19.1858 26.9867 19.1667 28.635 19.1667 29.1525C19.1667 29.555 19.4542 30.0342 20.2208 29.8808C26.2775 27.8492 30.6667 22.0992 30.6667 15.3333C30.6667 6.86167 23.805 0 15.3333 0Z" fill="currentColor"/>
    </symbol>


    <symbol id="circle" viewBox="0 0 48 47" fill="none">
        <circle cx="23.79" cy="23.7903" r="0.5" transform="rotate(-180 23.79 23.7903)" fill="currentColor"/>
        <path d="M47.29 23.7903C47.29 29.2271 45.4049 34.4958 41.9558 38.6985C38.5067 42.9013 33.707 45.7781 28.3747 46.8387C23.0423 47.8994 17.5071 47.0783 12.7122 44.5154C7.91734 41.9525 4.15946 37.8063 2.07887 32.7833C-0.00172168 27.7604 -0.276293 22.1713 1.30194 16.9686C2.88017 11.7659 6.21356 7.2713 10.7341 4.25075C15.2547 1.2302 20.6828 -0.129462 26.0934 0.403442C31.5041 0.936346 36.5626 3.32884 40.407 7.17327L37.8386 9.74177C34.5884 6.49157 30.3117 4.46888 25.7374 4.01835C21.1631 3.56782 16.574 4.71731 12.7522 7.27098C8.93036 9.82464 6.11222 13.6245 4.77793 18.023C3.44365 22.4216 3.67578 27.1467 5.43477 31.3933C7.19377 35.6399 10.3708 39.1452 14.4245 41.3119C18.4782 43.4787 23.1579 44.1729 27.666 43.2761C32.1742 42.3794 36.2319 39.9473 39.1479 36.3942C42.0639 32.841 43.6576 28.3868 43.6576 23.7903H47.29Z" fill="currentColor"/>
        <path d="M15.3059 39.0958C11.7648 37.1329 9.01386 34.003 7.52178 30.2392C6.02971 26.4755 5.88882 22.3108 7.12313 18.4548C8.35744 14.5988 10.8906 11.2901 14.2909 9.09244C17.6913 6.89477 21.7484 5.9441 25.7711 6.40243C29.7938 6.86076 33.5331 8.69972 36.352 11.606C39.1708 14.5122 40.8947 18.306 41.23 22.3408C41.5652 26.3756 40.4911 30.4018 38.1906 33.7335C35.8901 37.0651 32.5056 39.496 28.6137 40.612L27.8681 38.0118C31.1584 37.0683 34.0198 35.0132 35.9647 32.1965C37.9096 29.3798 38.8177 25.9759 38.5343 22.5648C38.2508 19.1536 36.7934 15.9463 34.4103 13.4893C32.0271 11.0322 28.8658 9.4775 25.4649 9.09002C22.064 8.70254 18.634 9.50626 15.7592 11.3642C12.8844 13.2222 10.7429 16.0195 9.69934 19.2795C8.65582 22.5394 8.77493 26.0604 10.0364 29.2424C11.2978 32.4243 13.6235 35.0705 16.6173 36.73L15.3059 39.0958Z" fill="currentColor"/>
        <path d="M23.79 11.29C26.682 11.29 29.4845 12.2928 31.72 14.1274C33.9555 15.962 35.4857 18.515 36.0499 21.3514C36.614 24.1878 36.1773 27.132 34.8141 29.6825C33.4508 32.233 31.2454 34.2318 28.5736 35.3385C25.9018 36.4452 22.9289 36.5913 20.1615 35.7518C17.3941 34.9123 15.0033 33.1392 13.3967 30.7347C11.79 28.3301 11.0668 25.4428 11.3502 22.5648C11.6337 19.6868 12.9063 16.9961 14.9512 14.9512L16.3174 16.3174C14.5886 18.0463 13.5127 20.321 13.2731 22.7542C13.0334 25.1874 13.6448 27.6283 15.0032 29.6612C16.3615 31.6941 18.3827 33.1931 20.7223 33.9029C23.062 34.6126 25.5754 34.4891 27.8342 33.5535C30.093 32.6178 31.9575 30.9279 33.1101 28.7717C34.2626 26.6155 34.6318 24.1263 34.1549 21.7283C33.6779 19.3304 32.3842 17.172 30.4942 15.621C28.6043 14.0699 26.235 13.2222 23.79 13.2222L23.79 11.29Z" fill="currentColor"/>
        <path d="M16.3201 19.7345C17.2584 18.0063 18.7669 16.6569 20.5887 15.9163C22.4104 15.1756 24.4325 15.0895 26.3106 15.6727C28.1887 16.2559 29.8064 17.4722 30.8883 19.1144C31.9701 20.7566 32.449 22.7231 32.2434 24.6789C32.0379 26.6346 31.1606 28.4586 29.7609 29.84C28.3613 31.2214 26.526 32.0748 24.5678 32.2547C22.6095 32.4346 20.6494 31.93 19.0215 30.8268C17.3936 29.7236 16.1986 28.09 15.64 26.2045L17.0172 25.7966C17.4814 27.3635 18.4745 28.721 19.8273 29.6378C21.1801 30.5546 22.809 30.9739 24.4363 30.8244C26.0637 30.6749 27.5889 29.9657 28.752 28.8177C29.9151 27.6697 30.6441 26.154 30.815 24.5287C30.9858 22.9035 30.5878 21.2692 29.6888 19.9045C28.7898 18.5398 27.4454 17.529 25.8847 17.0444C24.324 16.5598 22.6435 16.6314 21.1296 17.2469C19.6158 17.8623 18.3621 18.9837 17.5823 20.4199L16.3201 19.7345Z" fill="currentColor"/>
        <path d="M27.5097 26.323C26.9238 27.1835 26.0576 27.8143 25.0587 28.1078C24.0598 28.4013 22.9901 28.3394 22.0318 27.9326C21.0734 27.5258 20.2858 26.7993 19.8031 25.8769C19.3203 24.9545 19.1723 23.8933 19.3844 22.874C19.5964 21.8547 20.1552 20.9405 20.9658 20.287C21.7763 19.6336 22.7883 19.2814 23.8293 19.2905C24.8704 19.2996 25.8761 19.6694 26.6751 20.3369C27.4741 21.0043 28.0169 21.9282 28.2111 22.951L27.3835 23.1081C27.2256 22.2768 26.7844 21.5259 26.135 20.9833C25.4856 20.4408 24.6682 20.1403 23.822 20.1329C22.9758 20.1255 22.1532 20.4118 21.4945 20.9429C20.8357 21.4739 20.3814 22.217 20.2091 23.0455C20.0368 23.874 20.157 24.7366 20.5494 25.4863C20.9418 26.2361 21.582 26.8266 22.3609 27.1572C23.1399 27.4878 24.0093 27.5382 24.8212 27.2996C25.6331 27.061 26.3371 26.5483 26.8134 25.8489L27.5097 26.323Z" fill="currentColor"/>
        <path d="M22.9968 21.4195C23.5453 21.2359 24.1405 21.2483 24.6809 21.4544C25.2213 21.6605 25.6736 22.0476 25.9606 22.5497C26.2476 23.0519 26.3516 23.638 26.2549 24.2083C26.1582 24.7785 25.8667 25.2976 25.4302 25.677C24.9937 26.0565 24.4391 26.2729 23.861 26.2893C23.2828 26.3057 22.7169 26.1211 22.2595 25.767C21.8022 25.4129 21.4818 24.9112 21.3529 24.3473C21.224 23.7835 21.2947 23.1924 21.5527 22.6748L22.4295 23.1119C22.2725 23.4267 22.2296 23.7861 22.308 24.129C22.3863 24.4719 22.5812 24.777 22.8593 24.9924C23.1374 25.2077 23.4816 25.32 23.8332 25.31C24.1848 25.3 24.522 25.1684 24.7875 24.9377C25.053 24.7069 25.2302 24.3913 25.289 24.0445C25.3478 23.6977 25.2846 23.3412 25.11 23.0359C24.9355 22.7305 24.6605 22.4951 24.3318 22.3697C24.0032 22.2444 23.6412 22.2369 23.3077 22.3485L22.9968 21.4195Z" fill="currentColor"/>
    </symbol>
</svg>